<svg width="680" height="28" viewBox="0 0 680 28" fill="none" xmlns="http://www.w3.org/2000/svg">
<path fill-rule="evenodd" clip-rule="evenodd" d="M353.459 15.0608L353.957 15.0995C353.986 14.7367 354 14.37 354 14H357.477V13H354V14C354 13.63 353.986 13.2633 353.957 12.9005L353.459 12.9392L352.96 12.9779C352.987 13.315 353 13.6558 353 14C353 14.3442 352.987 14.685 352.96 15.0221L353.459 15.0608ZM353.13 10.8467L353.616 10.7304C353.444 10.0107 353.216 9.31265 352.938 8.64097L352.476 8.8325L352.014 9.02402C352.272 9.64739 352.484 10.2952 352.644 10.963L353.13 10.8467ZM351.513 6.94581L351.939 6.68416C351.554 6.05768 351.121 5.4638 350.646 4.90762L350.266 5.23252L349.886 5.55743C350.328 6.0741 350.729 6.62571 351.087 7.20746L351.513 6.94581ZM348.767 3.73411L349.092 3.35406C348.536 2.87859 347.942 2.44595 347.316 2.06123L347.054 2.48731L346.793 2.91339C347.374 3.27063 347.926 3.67246 348.443 4.11416L348.767 3.73411ZM345.168 1.52419L345.359 1.06233C344.687 0.783795 343.989 0.556044 343.27 0.383865L343.153 0.870141L343.037 1.35642C343.705 1.5162 344.353 1.72755 344.976 1.98605L345.168 1.52419ZM341.061 0.541039L341.1 0.0425411C340.737 0.0143559 340.37 0 340 0C339.63 0 339.263 0.0143558 338.9 0.042541L338.939 0.541039L338.978 1.03954C339.315 1.01335 339.656 1 340 1C340.344 1 340.685 1.01335 341.022 1.03954L341.061 0.541039ZM336.847 0.870141L336.73 0.383865C336.011 0.556044 335.313 0.783794 334.641 1.06233L334.832 1.52419L335.024 1.98605C335.647 1.72755 336.295 1.5162 336.963 1.35642L336.847 0.870141ZM332.946 2.48731L332.684 2.06123C332.058 2.44595 331.464 2.87859 330.908 3.35406L331.233 3.73411L331.557 4.11416C332.074 3.67246 332.626 3.27063 333.207 2.91338L332.946 2.48731ZM329.734 5.23252L329.354 4.90762C328.879 5.4638 328.446 6.05768 328.061 6.68416L328.487 6.94581L328.913 7.20746C329.271 6.62571 329.672 6.0741 330.114 5.55742L329.734 5.23252ZM327.524 8.8325L327.062 8.64097C326.784 9.31265 326.556 10.0107 326.384 10.7304L326.87 10.8467L327.356 10.963C327.516 10.2952 327.728 9.64739 327.986 9.02402L327.524 8.8325ZM326 14C326 13.63 326.014 13.2633 326.043 12.9005L326.541 12.9392L327.04 12.9779C327.013 13.315 327 13.6558 327 14C327 14.3442 327.013 14.685 327.04 15.0221L326.541 15.0608L326.043 15.0995C326.014 14.7367 326 14.37 326 14ZM326 13V14H322.523V13H326ZM326.87 17.1533L326.384 17.2696C326.556 17.9893 326.784 18.6874 327.062 19.359L327.524 19.1675L327.986 18.976C327.728 18.3526 327.516 17.7048 327.356 17.037L326.87 17.1533ZM328.487 21.0542L328.061 21.3158C328.446 21.9423 328.879 22.5362 329.354 23.0924L329.734 22.7675L330.114 22.4426C329.672 21.9259 329.271 21.3743 328.913 20.7925L328.487 21.0542ZM332.684 25.9388C332.058 25.5541 331.464 25.1214 330.908 24.6459L331.233 24.2659L331.557 23.8858C332.074 24.3275 332.626 24.7294 333.207 25.0866L332.946 25.5127L332.684 25.9388ZM334.832 26.4758L334.641 26.9377C335.313 27.2162 336.011 27.444 336.73 27.6161L336.847 27.1299L336.963 26.6436C336.295 26.4838 335.647 26.2724 335.024 26.0139L334.832 26.4758ZM338.939 27.459L338.9 27.9575C339.263 27.9856 339.63 28 340 28C340.37 28 340.737 27.9856 341.1 27.9575L341.061 27.459L341.022 26.9605C340.685 26.9866 340.344 27 340 27C339.656 27 339.315 26.9866 338.978 26.9605L338.939 27.459ZM343.153 27.1299L343.27 27.6161C343.989 27.444 344.687 27.2162 345.359 26.9377L345.168 26.4758L344.976 26.0139C344.353 26.2724 343.705 26.4838 343.037 26.6436L343.153 27.1299ZM347.054 25.5127L347.316 25.9388C347.942 25.5541 348.536 25.1214 349.092 24.6459L348.767 24.2659L348.443 23.8858C347.926 24.3275 347.374 24.7294 346.793 25.0866L347.054 25.5127ZM350.266 22.7675L350.646 23.0924C351.121 22.5362 351.554 21.9423 351.939 21.3158L351.513 21.0542L351.087 20.7925C350.729 21.3743 350.328 21.9259 349.886 22.4426L350.266 22.7675ZM352.476 19.1675L352.938 19.359C353.216 18.6874 353.444 17.9893 353.616 17.2696L353.13 17.1533L352.644 17.037C352.484 17.7048 352.272 18.3526 352.014 18.976L352.476 19.1675ZM10 24C15.5228 24 20 19.5228 20 14H23.4773V13H20V14C20 8.47715 15.5228 4 10 4C4.47715 4 0 8.47715 0 14C0 19.5228 4.47715 24 10 24ZM670 24C675.523 24 680 19.5228 680 14C680 8.47715 675.523 4 670 4C664.477 4 660 8.47715 660 14V13H656.523V14H660C660 19.5228 664.477 24 670 24ZM350 14C350 19.5228 345.523 24 340 24C334.477 24 330 19.5228 330 14C330 8.47715 334.477 4 340 4C345.523 4 350 8.47715 350 14ZM37.3864 14H30.4318V13H37.3864V14ZM51.2955 14H44.3409V13H51.2955V14ZM65.2045 14H58.25V13H65.2045V14ZM79.1136 14H72.1591V13H79.1136V14ZM93.0227 14H86.0682V13H93.0227V14ZM106.932 14H99.9773V13H106.932V14ZM120.841 14H113.886V13H120.841V14ZM134.75 14H127.795V13H134.75V14ZM148.659 14H141.705V13H148.659V14ZM162.568 14H155.614V13H162.568V14ZM176.477 14H169.523V13H176.477V14ZM190.386 14H183.432V13H190.386V14ZM204.295 14H197.341V13H204.295V14ZM218.205 14H211.25V13H218.205V14ZM232.114 14H225.159V13H232.114V14ZM246.023 14H239.068V13H246.023V14ZM259.932 14H252.977V13H259.932V14ZM273.841 14H266.886V13H273.841V14ZM287.75 14H280.795V13H287.75V14ZM301.659 14H294.705V13H301.659V14ZM315.568 14H308.614V13H315.568V14ZM364.432 14H371.386V13H364.432V14ZM378.341 14H385.295V13H378.341V14ZM392.25 14H399.205V13H392.25V14ZM406.159 14H413.114V13H406.159V14ZM420.068 14H427.023V13H420.068V14ZM433.977 14H440.932V13H433.977V14ZM447.886 14H454.841V13H447.886V14ZM461.795 14H468.75V13H461.795V14ZM475.705 14H482.659V13H475.705V14ZM489.614 14H496.568V13H489.614V14ZM503.523 14H510.477V13H503.523V14ZM517.432 14H524.386V13H517.432V14ZM531.341 14H538.295V13H531.341V14ZM545.25 14H552.205V13H545.25V14ZM559.159 14H566.114V13H559.159V14ZM573.068 14H580.023V13H573.068V14ZM586.977 14H593.932V13H586.977V14ZM600.886 14H607.841V13H600.886V14ZM614.795 14H621.75V13H614.795V14ZM628.705 14H635.659V13H628.705V14ZM642.614 14H649.568V13H642.614V14Z" fill="white"/>
</svg>
